 <svg version="1.0" xmlns="http://www.w3.org/2000/svg" width="700.000000pt" height="497.000000pt" viewBox="0 0 700.000000 497.000000" preserveAspectRatio="xMidYMid meet">

<g transform="translate(0.000000,497.000000) scale(0.100000,-0.100000)" fill="#000000" stroke="none">
<path d="M3360 4933 c-30 -20 -138 -89 -240 -153 -102 -65 -241 -153 -310
-197 -69 -44 -329 -209 -579 -368 -324 -206 -459 -297 -472 -319 -25 -41 -25
-112 1 -153 12 -21 68 -65 151 -119 108 -71 129 -88 118 -99 -8 -7 -300 -183
-649 -392 -1114 -667 -1324 -794 -1352 -821 -25 -23 -28 -32 -28 -97 0 -67 2
-73 32 -102 18 -18 125 -87 238 -156 211 -127 225 -136 495 -302 88 -54 306
-187 485 -295 410 -248 752 -457 945 -575 83 -51 215 -132 295 -180 80 -49
183 -111 230 -140 47 -28 148 -90 225 -137 77 -46 216 -131 309 -188 191 -117
230 -129 302 -92 50 25 615 367 1234 747 124 76 257 157 295 180 170 102 667
404 1105 672 261 159 537 327 613 373 92 56 144 94 157 116 37 60 21 155 -34
195 -11 8 -457 277 -991 597 -533 319 -979 587 -990 595 -18 14 -11 20 117
103 76 49 143 101 153 116 23 40 22 110 -4 151 -12 19 -49 53 -84 75 -34 21
-118 75 -187 119 -307 196 -1025 653 -1122 714 -58 37 -141 90 -183 118 -74
50 -78 51 -148 50 -65 0 -77 -3 -127 -36z m355 -413 c116 -73 316 -201 445
-283 129 -83 280 -178 335 -213 250 -158 300 -192 302 -205 2 -9 -96 -76 -250
-173 -238 -151 -532 -338 -732 -466 -249 -160 -320 -203 -330 -203 -6 0 -69
37 -140 83 -72 46 -204 130 -295 188 -91 57 -187 119 -215 137 -27 19 -135 88
-240 154 -322 203 -425 271 -425 280 0 5 30 28 68 52 37 23 114 73 172 110
295 187 849 541 950 606 63 40 122 72 130 70 8 -2 110 -64 225 -137z m-1106
-1337 c135 -86 275 -175 311 -198 36 -24 166 -107 290 -186 213 -136 228 -144
275 -144 50 0 64 8 600 350 302 193 554 350 560 350 17 0 174 -99 175 -110 0
-5 -21 -23 -48 -39 -43 -27 -176 -112 -532 -338 -695 -443 -752 -477 -771
-467 -17 9 -391 245 -566 358 -40 25 -105 67 -145 92 -40 26 -149 95 -243 154
-93 59 -214 135 -267 169 -54 33 -97 66 -97 71 0 6 39 33 86 62 71 42 90 50
106 41 11 -5 130 -80 266 -165z m2806 -284 c160 -95 391 -234 515 -309 124
-74 312 -187 418 -250 114 -68 191 -120 190 -128 -2 -8 -77 -59 -168 -114 -91
-55 -210 -127 -265 -161 -345 -209 -916 -554 -946 -571 l-36 -20 -399 253
c-219 139 -438 279 -486 310 -48 31 -173 110 -278 176 -104 66 -189 124 -187
129 2 5 165 112 362 237 198 126 394 251 435 278 41 26 165 106 275 176 110
70 216 137 235 150 19 12 37 22 40 20 3 -1 136 -80 295 -176z m-3476 127 c36
-24 154 -99 261 -168 855 -545 994 -635 997 -645 3 -8 -77 -60 -477 -313 -220
-139 -562 -355 -715 -453 -60 -38 -122 -77 -136 -85 -30 -18 32 -52 -659 368
-129 79 -356 217 -505 307 -148 90 -270 169 -270 175 0 6 65 51 145 98 421
253 1218 734 1235 746 31 22 53 17 124 -30z m1628 -1039 c37 -24 262 -167 498
-317 237 -149 466 -296 510 -324 44 -29 122 -78 173 -110 50 -32 92 -61 92
-65 0 -3 -78 -53 -173 -110 -285 -173 -526 -318 -856 -520 -173 -105 -320
-191 -327 -191 -8 0 -78 40 -156 88 -79 49 -271 167 -428 262 -339 206 -530
322 -663 403 -54 33 -96 65 -94 71 3 10 394 264 662 431 84 52 312 198 555
355 58 38 113 69 122 69 10 1 48 -19 85 -42z"></path>
</g>
</svg>
